<svg width="34" height="37" viewBox="0 0 34 37" fill="none" xmlns="http://www.w3.org/2000/svg">
<path d="M15.0535 0.774499C16.1457 -0.258166 17.8543 -0.258166 18.9465 0.774499L32.6698 13.7493C33.5189 14.5521 34 15.669 34 16.8375V32.6171C34 34.9642 32.0971 36.8671 29.75 36.8671H24.0833C21.7361 36.8671 19.8333 34.9642 19.8333 32.6171V25.5337C19.8333 24.7514 19.1991 24.1171 18.4167 24.1171H15.5833C14.8009 24.1171 14.1667 24.7514 14.1667 25.5337V32.6171C14.1667 34.9642 12.2639 36.8671 9.91667 36.8671H4.25C1.90278 36.8671 0 34.9642 0 32.6171V16.8375C0 15.669 0.4811 14.5521 1.33019 13.7493L15.0535 0.774499ZM17 2.83334L3.27672 15.8081C2.9937 16.0757 2.83333 16.448 2.83333 16.8375V32.6171C2.83333 33.3993 3.4676 34.0337 4.25 34.0337H9.91667C10.6991 34.0337 11.3333 33.3993 11.3333 32.6171V25.5337C11.3333 23.1866 13.2361 21.2838 15.5833 21.2838H18.4167C20.7639 21.2838 22.6667 23.1866 22.6667 25.5337V32.6171C22.6667 33.3993 23.3011 34.0337 24.0833 34.0337H29.75C30.5323 34.0337 31.1667 33.3993 31.1667 32.6171V16.8375C31.1667 16.448 31.0063 16.0757 30.7232 15.8081L17 2.83334Z" fill="white"/>
</svg>
