<svg width="43" height="50" viewBox="0 0 43 50" fill="none" xmlns="http://www.w3.org/2000/svg">
<path d="M7.4459 45.5792C7.08172 45.5799 6.72706 45.4629 6.4348 45.2456C6.14254 45.0283 5.92834 44.7224 5.82413 44.3734C5.71992 44.0245 5.7313 43.6512 5.85655 43.3092C5.9818 42.9672 6.21423 42.6749 6.51918 42.4758C17.408 35.3739 20.0406 22.4819 20.0654 22.3547C20.1585 21.9231 20.417 21.5451 20.7853 21.3017C21.1537 21.0583 21.6028 20.9688 22.0363 21.0524C22.4699 21.136 22.8534 21.3861 23.1049 21.749C23.3563 22.112 23.4556 22.559 23.3816 22.9942C23.269 23.5798 20.4809 37.4075 8.367 45.3044C8.09342 45.484 7.77319 45.5796 7.4459 45.5792Z" fill="#5C4B99"/>
<path d="M13.4938 49.7669C13.1442 49.7671 12.8032 49.6589 12.5178 49.457C12.2323 49.2552 12.0165 48.9698 11.9001 48.6402C11.7838 48.3106 11.7725 47.953 11.868 47.6167C11.9634 47.2804 12.1609 46.982 12.4331 46.7627C19.5705 40.8935 24.5576 32.8211 26.6121 23.8118C26.8981 22.3735 26.6328 20.8803 25.8689 19.6285C25.3567 18.7464 24.58 18.0476 23.6488 17.6312C22.7175 17.2148 21.6789 17.1018 20.6799 17.3083C19.6809 17.5148 18.7722 18.0302 18.0823 18.7817C17.3924 19.5331 16.9564 20.4826 16.8359 21.4955C16.8077 21.6385 14.1334 33.5238 4.76476 39.2486C4.57545 39.3724 4.3632 39.4569 4.14062 39.4971C3.91803 39.5373 3.68963 39.5324 3.46897 39.4827C3.24831 39.433 3.03989 39.3394 2.85607 39.2076C2.67226 39.0758 2.51678 38.9084 2.39888 38.7154C2.28098 38.5224 2.20305 38.3076 2.16972 38.0839C2.13638 37.8602 2.14832 37.632 2.20483 37.413C2.26134 37.194 2.36126 36.9886 2.49867 36.8089C2.63609 36.6292 2.80818 36.479 3.00476 36.3671C11.048 31.4497 13.5017 20.9404 13.5242 20.8334C13.8659 18.8985 14.8693 17.1424 16.3628 15.8656C17.8563 14.5888 19.7471 13.8706 21.7116 13.834C22.3182 13.8332 22.9228 13.9031 23.5133 14.0423C24.5968 14.2958 25.6185 14.7638 26.5182 15.4187C27.4179 16.0735 28.1773 16.9019 28.7516 17.855C29.9616 19.8255 30.3842 22.1797 29.9351 24.448C27.7103 34.2363 22.3004 43.0098 14.5534 49.3931C14.2532 49.635 13.8793 49.7669 13.4938 49.7669ZM23.0268 50C22.7021 50.0001 22.3843 49.9065 22.1114 49.7306C21.8386 49.5547 21.6221 49.3039 21.4881 49.0082C21.3541 48.7125 21.3082 48.3844 21.3558 48.0632C21.4034 47.742 21.5426 47.4414 21.7567 47.1973C30.971 36.6745 32.4912 28.7607 33.0632 25.7812L33.1657 25.2463C33.2544 24.807 33.5139 24.421 33.8873 24.173C34.0722 24.0503 34.2794 23.9651 34.4972 23.9225C34.7149 23.8798 34.939 23.8805 35.1565 23.9244C35.374 23.9683 35.5808 24.0546 35.7649 24.1784C35.9491 24.3023 36.107 24.4611 36.2298 24.646C36.3525 24.8309 36.4377 25.0381 36.4804 25.2559C36.523 25.4736 36.5224 25.6977 36.4785 25.9152L36.3794 26.4185C35.7612 29.6435 34.116 38.2115 24.2981 49.4235C24.1395 49.6046 23.9441 49.7498 23.7248 49.8492C23.5056 49.9487 23.2676 50.0001 23.0268 50ZM2.15798 31.4857C1.79241 31.485 1.43693 31.3657 1.14495 31.1457C0.85296 30.9258 0.640223 30.617 0.538686 30.2658C0.437149 29.9146 0.452294 29.5399 0.581845 29.1981C0.711397 28.8562 0.948362 28.5657 1.25715 28.37C2.99722 27.1464 4.36727 25.4678 5.21742 23.5179C5.31665 23.3139 5.45595 23.132 5.627 22.983C5.79806 22.834 5.99738 22.721 6.21306 22.6508C6.42874 22.5805 6.65636 22.5544 6.88235 22.574C7.10834 22.5936 7.32806 22.6585 7.52841 22.7649C7.72876 22.8713 7.90563 23.0169 8.04847 23.1932C8.1913 23.3694 8.29718 23.5726 8.35978 23.7906C8.42238 24.0086 8.44042 24.237 8.41282 24.4622C8.38523 24.6873 8.31257 24.9046 8.19917 25.1011C7.08802 27.5792 5.30939 29.6994 3.06219 31.2245C2.79196 31.3962 2.47816 31.4869 2.15798 31.4857ZM8.64846 21.3255C8.54068 21.3261 8.43313 21.3155 8.32754 21.294C7.88788 21.2094 7.49977 20.9538 7.24851 20.5832C6.99725 20.2127 6.90339 19.7575 6.98755 19.3178C7.50857 16.5242 8.78104 13.9254 10.6682 11.8008C12.5553 9.67617 14.9858 8.10599 17.6984 7.25903C18.1283 7.13241 18.5909 7.18175 18.9844 7.39619C19.3779 7.61064 19.6702 7.97263 19.7968 8.40252C19.9234 8.83242 19.8741 9.29501 19.6596 9.68853C19.4452 10.0821 19.0832 10.3743 18.6533 10.5009C16.533 11.1691 14.6352 12.403 13.1642 14.0697C11.6931 15.7364 10.7045 17.7728 10.3049 19.9596C10.2299 20.344 10.0237 20.6904 9.72159 20.9396C9.41944 21.1887 9.04009 21.3251 8.64846 21.3255ZM34.5687 20.3402C34.199 20.3405 33.8394 20.2195 33.545 19.9958C33.2507 19.772 33.0379 19.4579 32.9393 19.1016C32.6117 17.9026 32.1134 16.757 31.4597 15.6998C30.6753 14.3633 29.6274 13.2002 28.3796 12.2811C27.1318 11.3621 25.7103 10.7062 24.2013 10.3534C23.7632 10.2577 23.381 9.99183 23.1389 9.61436C22.8968 9.23689 22.8146 8.7787 22.9103 8.34059C23.006 7.90248 23.2718 7.52034 23.6493 7.27823C24.0268 7.03612 24.485 6.95387 24.9231 7.04959C26.8754 7.49656 28.7164 8.33598 30.3342 9.51682C31.9519 10.6976 33.3126 12.1952 34.3334 13.9184C35.1564 15.2483 35.7847 16.6893 36.1992 18.1974C36.258 18.4114 36.274 18.6349 36.2463 18.8552C36.2186 19.0754 36.1478 19.288 36.0378 19.4809C35.9279 19.6737 35.7811 19.843 35.6057 19.979C35.4303 20.1151 35.2298 20.2152 35.0157 20.2738C34.8702 20.3151 34.72 20.3374 34.5687 20.3402Z" fill="#5C4B99"/>
<path d="M33.4607 46.6895C33.156 46.6892 32.8571 46.6065 32.5956 46.4502C32.3341 46.2938 32.1198 46.0697 31.9753 45.8015C31.8308 45.5333 31.7615 45.231 31.7748 44.9266C31.7881 44.6222 31.8835 44.3271 32.0509 44.0725C38.5819 34.1296 39.3217 27.1077 39.3499 26.8149C39.7125 23.7419 39.5192 20.6287 38.779 17.6242C38.6562 17.2003 38.7041 16.7452 38.9126 16.3563C39.1211 15.9673 39.4735 15.6754 39.8945 15.543C40.3154 15.4106 40.7715 15.4482 41.1651 15.6477C41.5587 15.8473 41.8586 16.1929 42.0005 16.6108C42.8925 20.0451 43.1335 23.6161 42.7111 27.1392C42.6345 27.9567 41.7438 35.4719 34.875 45.9271C34.7211 46.1616 34.5112 46.3541 34.2643 46.4872C34.0174 46.6203 33.7412 46.6898 33.4607 46.6895ZM1.69181 23.0033H1.56006C1.33882 22.9863 1.12309 22.9259 0.925187 22.8256C0.727286 22.7253 0.551097 22.5869 0.406685 22.4184C0.262274 22.25 0.15247 22.0547 0.0835485 21.8438C0.0146265 21.6329 -0.0120634 21.4105 0.00500435 21.1892C0.997043 8.3006 9.87584 2.00493 17.1771 0.524193C31.1298 -2.29766 38.1123 7.05521 39.923 9.9829C40.1591 10.3647 40.2338 10.8247 40.1308 11.2616C40.0277 11.6985 39.7553 12.0766 39.3735 12.3127C38.9917 12.5488 38.5317 12.6235 38.0948 12.5204C37.6579 12.4174 37.2798 12.145 37.0437 11.7632C35.0991 8.60238 29.3214 1.50497 17.8482 3.83699C11.6989 5.08126 4.22089 10.4389 3.37411 21.4471C3.3407 21.8705 3.14902 22.2657 2.83725 22.5541C2.52548 22.8425 2.11651 23.0029 1.69181 23.0033Z" fill="#5C4B99"/>
</svg>
