<svg width="45" height="50" viewBox="0 0 45 50" fill="none" xmlns="http://www.w3.org/2000/svg">
<path fill-rule="evenodd" clip-rule="evenodd" d="M41.1765 11.7647H2.9412V7.35294C2.9412 6.5294 3.58823 5.88234 4.41177 5.88234H8.82351V7.35294C8.82351 8.17646 9.4706 8.82354 10.2941 8.82354C11.1177 8.82354 11.7647 8.17646 11.7647 7.35294V5.88234H32.353V7.35294C32.353 8.17646 33 8.82354 33.8235 8.82354C34.6471 8.82354 35.2941 8.17646 35.2941 7.35294V5.88234H39.7059C40.5294 5.88234 41.1765 6.5294 41.1765 7.35294V11.7647ZM19.1177 38.8529L9.26471 28.9706L11.3235 26.9118L19.1177 34.6765L32.7941 21.0294L34.853 23.0882L19.1177 38.8529ZM39.7059 2.94117H35.2941V1.4706C35.2941 0.647057 34.6471 0 33.8235 0C33 0 32.353 0.647057 32.353 1.4706V2.94117H11.7647V1.4706C11.7647 0.647057 11.1177 0 10.2941 0C9.4706 0 8.82351 0.647057 8.82351 1.4706V2.94117H4.41177C1.9706 2.94117 0 4.91177 0 7.35294V50H44.1177V7.35294C44.1177 4.91177 42.1471 2.94117 39.7059 2.94117Z" fill="#5C4B99"/>
</svg>
