<svg width="47" height="50" viewBox="0 0 47 50" fill="none" xmlns="http://www.w3.org/2000/svg">
<path d="M29.9999 4.3335V15.3335C33.9999 17.6668 36.6665 22.0001 36.6665 26.6668C36.6665 34.0001 30.6666 40 23.3333 40C15.9999 40 9.99997 34.0001 9.99997 26.6668C9.99997 21.6668 12.6666 17.3335 16.6666 15.3335V4.3335C6.99998 7.33349 0 16.0001 0 26.6668C0 39.6667 10.3333 50 23.3333 50C36.3332 50 46.6665 39.6667 46.6665 26.6668C46.6665 16.0001 39.6665 7.33349 29.9999 4.3335Z" fill="#FF0000"/>
<path d="M19.9999 0H26.6666V23.3333H19.9999V0Z" fill="#FF0000"/>
</svg>
