<svg width="50" height="50" viewBox="0 0 50 50" fill="none" xmlns="http://www.w3.org/2000/svg">
<path d="M39.5834 16.6667H10.4167C6.95835 16.6667 4.16669 19.4583 4.16669 22.9167V35.4167H12.5V43.75H37.5V35.4167H45.8334V22.9167C45.8334 19.4583 43.0417 16.6667 39.5834 16.6667ZM33.3334 39.5833H16.6667V29.1667H33.3334V39.5833ZM39.5834 25C38.4375 25 37.5 24.0625 37.5 22.9167C37.5 21.7708 38.4375 20.8333 39.5834 20.8333C40.7292 20.8333 41.6667 21.7708 41.6667 22.9167C41.6667 24.0625 40.7292 25 39.5834 25ZM37.5 6.25H12.5V14.5833H37.5V6.25Z" fill="#5C4B99"/>
</svg>
