<svg width="44" height="50" viewBox="0 0 44 50" fill="none" xmlns="http://www.w3.org/2000/svg">
<path d="M18.75 0C15.3125 0 12.5 2.8125 12.5 6.25H6.25C2.8125 6.25 0 9.0625 0 12.5H43.75C43.75 9.0625 40.9375 6.25 37.5 6.25H31.25C31.25 2.8125 28.4375 0 25 0H18.75ZM6.25 18.75V48.8125C6.25 49.5 6.75 50 7.4375 50H36.375C37.0625 50 37.5625 49.5 37.5625 48.8125V18.75H31.3125V40.625C31.3125 42.375 29.9375 43.75 28.1875 43.75C26.4375 43.75 25.0625 42.375 25.0625 40.625V18.75H18.8125V40.625C18.8125 42.375 17.4375 43.75 15.6875 43.75C13.9375 43.75 12.5625 42.375 12.5625 40.625V18.75H6.3125H6.25Z" fill="#5C4B99"/>
</svg>
