<svg width="34" height="35" viewBox="0 0 34 35" fill="none" xmlns="http://www.w3.org/2000/svg">
<path d="M23.3128 18.3063C24.9877 16.9885 26.2102 15.1815 26.8103 13.1366C27.4104 11.0917 27.3581 8.91058 26.6609 6.89673C25.9636 4.88287 24.656 3.13642 22.92 1.90033C21.184 0.664249 19.1058 0 16.9747 0C14.8435 0 12.7654 0.664249 11.0293 1.90033C9.29329 3.13642 7.98568 4.88287 7.28843 6.89673C6.59118 8.91058 6.53896 11.0917 7.13903 13.1366C7.7391 15.1815 8.96162 16.9885 10.6365 18.3063C7.76655 19.4561 5.2624 21.3632 3.39103 23.8243C1.51967 26.2853 0.351237 29.2081 0.0103048 32.281C-0.0143737 32.5053 0.00537867 32.7323 0.0684336 32.949C0.131489 33.1658 0.236611 33.3679 0.3778 33.544C0.662944 33.8996 1.07768 34.1274 1.53078 34.1773C1.98387 34.2271 2.43821 34.0949 2.79383 33.8098C3.14946 33.5246 3.37725 33.1099 3.42709 32.6568C3.80223 29.3172 5.39463 26.2329 7.90004 23.9932C10.4055 21.7534 13.6482 20.5153 17.0088 20.5153C20.3694 20.5153 23.6122 21.7534 26.1176 23.9932C28.623 26.2329 30.2154 29.3172 30.5906 32.6568C30.637 33.0766 30.8373 33.4643 31.1528 33.7451C31.4683 34.0259 31.8766 34.1798 32.299 34.1773H32.4869C32.9347 34.1257 33.344 33.8993 33.6256 33.5473C33.9072 33.1953 34.0383 32.7463 33.9903 32.298C33.6477 29.2164 32.473 26.2862 30.592 23.8213C28.711 21.3565 26.1947 19.45 23.3128 18.3063ZM16.9747 17.0933C15.6231 17.0933 14.3019 16.6925 13.1781 15.9417C12.0544 15.1908 11.1785 14.1235 10.6613 12.8749C10.144 11.6262 10.0087 10.2522 10.2724 8.92659C10.5361 7.60101 11.1869 6.38338 12.1426 5.42769C13.0983 4.47199 14.3159 3.82116 15.6415 3.55748C16.9671 3.29381 18.3411 3.42914 19.5898 3.94635C20.8384 4.46357 21.9057 5.33945 22.6566 6.46322C23.4075 7.587 23.8082 8.9082 23.8082 10.2598C23.8082 12.0721 23.0883 13.8103 21.8067 15.0918C20.5252 16.3734 18.787 17.0933 16.9747 17.0933Z" fill="white"/>
</svg>
